<svg id="e7c542EJFGu1" xmlns="http://www.w3.org/2000/svg" xmlns:xlink="http://www.w3.org/1999/xlink" viewBox="0 0 23 22" shape-rendering="geometricPrecision" text-rendering="geometricPrecision"><path d="M11.5,20.6652q-2.04518.1463-2.87108-.551t-.4909-2.3723q.009299-.4663-.041401-.8992t-2.0931-6.7486q-.8397,1.1332-1.8036.8753t-2.9724-1.20203q-.1823-.08051,0-.26976c.1823-.18925,1.6353-1.03182,2.0085-1.0716q.3732-.03978,1.7319.04135-2.1392-1.3733-2.6725-3.20884c-.5333-1.83554-.4978-2.5889.0147-3.92371s.8754,2.7419,2.9254,3.72456q2.05.98266,3.1334.55701.159501-.30833.260001-.30833t2.871079-.06979h-.089239q2.770579.06979,2.871079.06979t.260001.30833q1.0834.42565,3.1334-.55701c2.05-.98266,2.4129-5.05937,2.9254-3.72456s.548,2.08817.0147,3.92371q-.5333,1.83554-2.6725,3.20884q1.3587-.08113,1.7319-.04135c.3732.03978,1.8262.88235,2.0085,1.0716q.1823.18925,0,.26976-2.0085.94413-2.9724,1.20203t-1.8036-.8753q-2.0424,6.3157-2.0931,6.7486t-.041401.8992q.335,1.675-.4909,2.3723t-2.87108.551h.089241Z" transform="matrix(-1 0 0 1 22.91076 0)" fill="none" stroke="#3f5787" stroke-width="0.5"/></svg>
